{
  "accessors": [
    {
      "bufferView": 2,
      "componentType": 5126,
      "count": 12738,
      "max": [
        3.4639599323272705,
        1.2754299640655518,
        -23.796850204467773
      ],
      "min": [
        -3.4639599323272705,
        -0.8570500016212463,
        -26.56867027282715
      ],
      "type": "VEC3"
    },
    {
      "bufferView": 2,
      "byteOffset": 152856,
      "componentType": 5126,
      "count": 12738,
      "max": [
        0.9995471239089966,
        0.9999995827674866,
        0.9895308017730713
      ],
      "min": [
        -0.9995471239089966,
        -0.9999786019325256,
        -0.9999890923500061
      ],
      "type": "VEC3"
    },
    {
      "bufferView": 1,
      "componentType": 5126,
      "count": 12738,
      "max": [
        0.0,
        0.0
      ],
      "min": [
        0.0,
        0.0
      ],
      "type": "VEC2"
    },
    {
      "bufferView": 0,
      "componentType": 5125,
      "count": 76032,
      "type": "SCALAR"
    },
    {
      "bufferView": 2,
      "byteOffset": 305712,
      "componentType": 5126,
      "count": 7945,
      "max": [
        5.526259899139404,
        3.0216400623321533,
        1.2844300270080566
      ],
      "min": [
        -5.526259899139404,
        -1.2085700035095215,
        -24.269880294799805
      ],
      "type": "VEC3"
    },
    {
      "bufferView": 2,
      "byteOffset": 401052,
      "componentType": 5126,
      "count": 7945,
      "max": [
        0.9986638426780701,
        0.999993622303009,
        0.67671138048172
      ],
      "min": [
        -0.9986638426780701,
        -0.8842858076095581,
        -0.6339124441146851
      ],
      "type": "VEC3"
    },
    {
      "bufferView": 1,
      "byteOffset": 101904,
      "componentType": 5126,
      "count": 7945,
      "max": [
        0.9732300043106079,
        0.9999499917030334
      ],
      "min": [
        0.02792000025510788,
        4.999999873689376e-05
      ],
      "type": "VEC2"
    },
    {
      "bufferView": 0,
      "byteOffset": 304128,
      "componentType": 5125,
      "count": 46080,
      "type": "SCALAR"
    },
    {
      "bufferView": 2,
      "byteOffset": 496392,
      "componentType": 5126,
      "count": 37031,
      "max": [
        12.197589874267578,
        5.116809844970703,
        5.599899768829346
      ],
      "min": [
        -12.197589874267578,
        -4.791769981384277,
        -24.389619827270508
      ],
      "type": "VEC3"
    },
    {
      "bufferView": 2,
      "byteOffset": 940764,
      "componentType": 5126,
      "count": 37031,
      "max": [
        0.9983897805213928,
        0.9999961256980896,
        0.9999988675117493
      ],
      "min": [
        -0.9983882308006287,
        -0.999999463558197,
        -0.9995291829109192
      ],
      "type": "VEC3"
    },
    {
      "bufferView": 1,
      "byteOffset": 165464,
      "componentType": 5126,
      "count": 37031,
      "max": [
        0.6331499814987183,
        0.9948999881744385
      ],
      "min": [
        -0.03102000057697296,
        -0.0012499999720603228
      ],
      "type": "VEC2"
    },
    {
      "bufferView": 0,
      "byteOffset": 488448,
      "componentType": 5125,
      "count": 218880,
      "type": "SCALAR"
    }
  ],
  "asset": {
    "extras": {
      "author": "Marcel Porsiel (https://sketchfab.com/Marcemellow)",
      "license": "CC-BY-NC-4.0 (http://creativecommons.org/licenses/by-nc/4.0/)",
      "source": "https://sketchfab.com/3d-models/emperor-penguin-310f1d21cf534fd0bcf073aa9b08a740",
      "title": "emperor penguin"
    },
    "generator": "Sketchfab-12.67.0",
    "version": "2.0"
  },
  "bufferViews": [
    {
      "buffer": 0,
      "byteLength": 1363968,
      "name": "floatBufferViews",
      "target": 34963
    },
    {
      "buffer": 0,
      "byteLength": 461712,
      "byteOffset": 1363968,
      "byteStride": 8,
      "name": "floatBufferViews",
      "target": 34962
    },
    {
      "buffer": 0,
      "byteLength": 1385136,
      "byteOffset": 1825680,
      "byteStride": 12,
      "name": "floatBufferViews",
      "target": 34962
    }
  ],
  "buffers": [
    {
      "byteLength": 3210816,
      "uri": "scene.bin"
    }
  ],
  "extensionsRequired": [
    "KHR_materials_pbrSpecularGlossiness"
  ],
  "extensionsUsed": [
    "KHR_materials_pbrSpecularGlossiness"
  ],
  "images": [
    {
      "uri": "textures/pinguin2_diffuse.jpeg"
    },
    {
      "uri": "textures/pinguin3_diffuse.jpeg"
    }
  ],
  "materials": [
    {
      "doubleSided": true,
      "extensions": {
        "KHR_materials_pbrSpecularGlossiness": {
          "diffuseFactor": [
            0.0,
            0.0,
            0.0,
            1.0
          ],
          "glossinessFactor": 0.18417195254151927,
          "specularFactor": [
            0.05707788387326218,
            0.05707788387326218,
            0.05707788387326218
          ]
        }
      },
      "name": "pinguin1"
    },
    {
      "doubleSided": true,
      "extensions": {
        "KHR_materials_pbrSpecularGlossiness": {
          "diffuseFactor": [
            1.0,
            1.0,
            1.0,
            1.0
          ],
          "diffuseTexture": {
            "index": 0
          },
          "glossinessFactor": 0.3728511978245381,
          "specularFactor": [
            0.14230611761286127,
            0.14230611761286127,
            0.14230611761286127
          ]
        }
      },
      "name": "pinguin2"
    },
    {
      "doubleSided": true,
      "extensions": {
        "KHR_materials_pbrSpecularGlossiness": {
          "diffuseFactor": [
            1.0,
            1.0,
            1.0,
            1.0
          ],
          "diffuseTexture": {
            "index": 1
          },
          "glossinessFactor": 0.14014679530881485,
          "specularFactor": [
            0.0,
            0.0,
            0.0
          ]
        }
      },
      "name": "pinguin3"
    }
  ],
  "meshes": [
    {
      "name": "Cube_0",
      "primitives": [
        {
          "attributes": {
            "NORMAL": 1,
            "POSITION": 0,
            "TEXCOORD_0": 2
          },
          "indices": 3,
          "material": 0,
          "mode": 4
        }
      ]
    },
    {
      "name": "Cube_1",
      "primitives": [
        {
          "attributes": {
            "NORMAL": 5,
            "POSITION": 4,
            "TEXCOORD_0": 6
          },
          "indices": 7,
          "material": 1,
          "mode": 4
        }
      ]
    },
    {
      "name": "Cube_2",
      "primitives": [
        {
          "attributes": {
            "NORMAL": 9,
            "POSITION": 8,
            "TEXCOORD_0": 10
          },
          "indices": 11,
          "material": 2,
          "mode": 4
        }
      ]
    }
  ],
  "nodes": [
    {
      "children": [
        1
      ],
      "matrix": [
        0.1495988816022873,
        0.0,
        0.0,
        0.0,
        0.0,
        3.3217624562606416e-17,
        -0.1495988816022873,
        0.0,
        0.0,
        0.1495988816022873,
        3.3217624562606416e-17,
        0.0,
        0.0,
        0.0,
        0.0,
        1.0
      ],
      "name": "Sketchfab_model"
    },
    {
      "children": [
        2,
        4
      ],
      "name": "Root"
    },
    {
      "children": [
        3
      ],
      "matrix": [
        -0.29086000000000006,
        0.9551700000000001,
        -0.05519000000000001,
        0.0,
        -0.7711,
        -0.19988000000000003,
        0.6045200000000001,
        0.0,
        0.5663900000000001,
        0.21839000000000003,
        0.7946700000000001,
        0.0,
        4.076250000000001,
        2.91153,
        10.35387,
        1.0
      ],
      "name": "Lamp"
    },
    {
      "name": "Lamp"
    },
    {
      "children": [
        5,
        6,
        7
      ],
      "matrix": [
        -0.14743000000000003,
        0.0,
        0.0,
        0.0,
        0.0,
        0.35397000000000006,
        0.0,
        0.0,
        0.0,
        0.0,
        0.15663000000000002,
        0.0,
        0.31876000000000004,
        1.6606100000000001,
        1.53131,
        1.0
      ],
      "name": "Cube"
    },
    {
      "mesh": 0,
      "name": "Cube_0"
    },
    {
      "mesh": 1,
      "name": "Cube_1"
    },
    {
      "mesh": 2,
      "name": "Cube_2"
    }
  ],
  "samplers": [
    {
      "magFilter": 9729,
      "minFilter": 9987,
      "wrapS": 10497,
      "wrapT": 10497
    }
  ],
  "scene": 0,
  "scenes": [
    {
      "name": "Sketchfab_Scene",
      "nodes": [
        0
      ]
    }
  ],
  "textures": [
    {
      "sampler": 0,
      "source": 0
    },
    {
      "sampler": 0,
      "source": 1
    }
  ]
}
