{
  "accessors": [
    {
      "bufferView": 2,
      "componentType": 5126,
      "count": 1004,
      "max": [
        10.943474769592285,
        9.939985275268555,
        8.387929916381836
      ],
      "min": [
        -10.823627471923828,
        -11.827118873596191,
        -3.521320104598999
      ],
      "type": "VEC3"
    },
    {
      "bufferView": 2,
      "byteOffset": 12048,
      "componentType": 5126,
      "count": 1004,
      "max": [
        0.999432384967804,
        0.9994489550590515,
        0.9984301328659058
      ],
      "min": [
        -0.9997019171714783,
        -0.9999999403953552,
        -1.0
      ],
      "type": "VEC3"
    },
    {
      "bufferView": 1,
      "componentType": 5126,
      "count": 1004,
      "max": [
        0.0,
        0.0
      ],
      "min": [
        0.0,
        0.0
      ],
      "type": "VEC2"
    },
    {
      "bufferView": 0,
      "componentType": 5125,
      "count": 2982,
      "type": "SCALAR"
    },
    {
      "bufferView": 2,
      "byteOffset": 24096,
      "componentType": 5126,
      "count": 6264,
      "max": [
        8.467787742614746,
        9.939985275268555,
        10.403153419494629
      ],
      "min": [
        -10.823627471923828,
        -11.827118873596191,
        -1.247549057006836
      ],
      "type": "VEC3"
    },
    {
      "bufferView": 2,
      "byteOffset": 99264,
      "componentType": 5126,
      "count": 6264,
      "max": [
        0.9994408488273621,
        0.9984712600708008,
        0.9999974966049194
      ],
      "min": [
        -0.9995483160018921,
        -0.9995494484901428,
        -0.9948535561561584
      ],
      "type": "VEC3"
    },
    {
      "bufferView": 1,
      "byteOffset": 8032,
      "componentType": 5126,
      "count": 6264,
      "max": [
        0.9810010194778442,
        0.9979680180549622
      ],
      "min": [
        0.09488700330257416,
        0.007269999943673611
      ],
      "type": "VEC2"
    },
    {
      "bufferView": 0,
      "byteOffset": 11928,
      "componentType": 5125,
      "count": 34851,
      "type": "SCALAR"
    },
    {
      "bufferView": 2,
      "byteOffset": 174432,
      "componentType": 5126,
      "count": 3059,
      "max": [
        10.943474769592285,
        9.4048490524292,
        10.403153419494629
      ],
      "min": [
        -10.189340591430664,
        -7.810588836669922,
        -1.1716779470443726
      ],
      "type": "VEC3"
    },
    {
      "bufferView": 2,
      "byteOffset": 211140,
      "componentType": 5126,
      "count": 3059,
      "max": [
        0.9703347682952881,
        0.998650074005127,
        0.9999958872795105
      ],
      "min": [
        -0.9673050045967102,
        -0.9948420524597168,
        -0.8406198620796204
      ],
      "type": "VEC3"
    },
    {
      "bufferView": 1,
      "byteOffset": 58144,
      "componentType": 5126,
      "count": 3059,
      "max": [
        0.9288780093193054,
        0.9979889988899231
      ],
      "min": [
        0.5020800232887268,
        0.1662130057811737
      ],
      "type": "VEC2"
    },
    {
      "bufferView": 0,
      "byteOffset": 151332,
      "componentType": 5125,
      "count": 16707,
      "type": "SCALAR"
    },
    {
      "bufferView": 2,
      "byteOffset": 247848,
      "componentType": 5126,
      "count": 128,
      "max": [
        10.323057174682617,
        6.483425140380859,
        0.2447579950094223
      ],
      "min": [
        -5.757493019104004,
        -4.250965118408203,
        -1.3020169734954834
      ],
      "type": "VEC3"
    },
    {
      "bufferView": 2,
      "byteOffset": 249384,
      "componentType": 5126,
      "count": 128,
      "max": [
        0.502235472202301,
        0.9388217926025391,
        0.9822018146514893
      ],
      "min": [
        -0.6967377662658691,
        -0.33464065194129944,
        -0.797355055809021
      ],
      "type": "VEC3"
    },
    {
      "bufferView": 1,
      "byteOffset": 82616,
      "componentType": 5126,
      "count": 128,
      "max": [
        0.7517639994621277,
        0.992139995098114
      ],
      "min": [
        0.03940200060606003,
        0.2692199945449829
      ],
      "type": "VEC2"
    },
    {
      "bufferView": 0,
      "byteOffset": 218160,
      "componentType": 5125,
      "count": 522,
      "type": "SCALAR"
    }
  ],
  "asset": {
    "extras": {
      "author": "Horniman Museum (https://sketchfab.com/HornimanMuseum)",
      "license": "CC-BY-NC-ND-4.0 (http://creativecommons.org/licenses/by-nc-nd/4.0/)",
      "source": "https://sketchfab.com/3d-models/walrus-horniman-museum-and-gardens-b537ea7dad58423db5ac581de72c36a1",
      "title": "Walrus, Horniman Museum And Gardens"
    },
    "generator": "Sketchfab-15.25.0",
    "version": "2.0"
  },
  "bufferViews": [
    {
      "buffer": 0,
      "byteLength": 220248,
      "name": "floatBufferViews",
      "target": 34963
    },
    {
      "buffer": 0,
      "byteLength": 83640,
      "byteOffset": 220248,
      "byteStride": 8,
      "name": "floatBufferViews",
      "target": 34962
    },
    {
      "buffer": 0,
      "byteLength": 250920,
      "byteOffset": 303888,
      "byteStride": 12,
      "name": "floatBufferViews",
      "target": 34962
    }
  ],
  "buffers": [
    {
      "byteLength": 554808,
      "uri": "scene.bin"
    }
  ],
  "extensionsUsed": [
    "KHR_materials_unlit"
  ],
  "images": [
    {
      "uri": "textures/Texture_0_baseColor.jpeg"
    },
    {
      "uri": "textures/Texture_1_baseColor.jpeg"
    },
    {
      "uri": "textures/Texture_2_baseColor.jpeg"
    }
  ],
  "materials": [
    {
      "doubleSided": true,
      "extensions": {
        "KHR_materials_unlit": {}
      },
      "name": "Texture_0",
      "pbrMetallicRoughness": {
        "baseColorFactor": [
          0.0,
          0.0,
          0.0,
          1.0
        ],
        "baseColorTexture": {
          "index": 0
        },
        "metallicFactor": 0.0
      }
    },
    {
      "doubleSided": true,
      "extensions": {
        "KHR_materials_unlit": {}
      },
      "name": "Texture_0_tex_0.jpg",
      "pbrMetallicRoughness": {
        "baseColorTexture": {
          "index": 0
        },
        "metallicFactor": 0.0
      }
    },
    {
      "doubleSided": true,
      "extensions": {
        "KHR_materials_unlit": {}
      },
      "name": "Texture_1",
      "pbrMetallicRoughness": {
        "baseColorTexture": {
          "index": 1
        },
        "metallicFactor": 0.0
      }
    },
    {
      "doubleSided": true,
      "extensions": {
        "KHR_materials_unlit": {}
      },
      "name": "Texture_2",
      "pbrMetallicRoughness": {
        "baseColorTexture": {
          "index": 2
        },
        "metallicFactor": 0.0
      }
    }
  ],
  "meshes": [
    {
      "name": "Object_0",
      "primitives": [
        {
          "attributes": {
            "NORMAL": 1,
            "POSITION": 0,
            "TEXCOORD_0": 2
          },
          "indices": 3,
          "material": 0,
          "mode": 4
        }
      ]
    },
    {
      "name": "Object_1",
      "primitives": [
        {
          "attributes": {
            "NORMAL": 5,
            "POSITION": 4,
            "TEXCOORD_0": 6
          },
          "indices": 7,
          "material": 1,
          "mode": 4
        }
      ]
    },
    {
      "name": "Object_2",
      "primitives": [
        {
          "attributes": {
            "NORMAL": 9,
            "POSITION": 8,
            "TEXCOORD_0": 10
          },
          "indices": 11,
          "material": 2,
          "mode": 4
        }
      ]
    },
    {
      "name": "Object_3",
      "primitives": [
        {
          "attributes": {
            "NORMAL": 13,
            "POSITION": 12,
            "TEXCOORD_0": 14
          },
          "indices": 15,
          "material": 3,
          "mode": 4
        }
      ]
    }
  ],
  "nodes": [
    {
      "children": [
        1
      ],
      "matrix": [
        0.0,
        2.220446049250313e-16,
        -1.0,
        0.0,
        -1.0,
        0.0,
        0.0,
        0.0,
        0.0,
        1.0,
        2.220446049250313e-16,
        0.0,
        0.0,
        0.0,
        0.0,
        1.0
      ],
      "name": "Sketchfab_model"
    },
    {
      "children": [
        2,
        3,
        4,
        5
      ],
      "name": "HM-Walrus-2.obj.cleaner.materialmerger.gles"
    },
    {
      "mesh": 0,
      "name": "Object_2"
    },
    {
      "mesh": 1,
      "name": "Object_3"
    },
    {
      "mesh": 2,
      "name": "Object_4"
    },
    {
      "mesh": 3,
      "name": "Object_5"
    }
  ],
  "samplers": [
    {
      "magFilter": 9729,
      "minFilter": 9987,
      "wrapS": 10497,
      "wrapT": 10497
    }
  ],
  "scene": 0,
  "scenes": [
    {
      "name": "Sketchfab_Scene",
      "nodes": [
        0
      ]
    }
  ],
  "textures": [
    {
      "sampler": 0,
      "source": 0
    },
    {
      "sampler": 0,
      "source": 1
    },
    {
      "sampler": 0,
      "source": 2
    }
  ]
}
